<svg xmlns="http://www.w3.org/2000/svg" version="1.1" xmlns:xlink="http://www.w3.org/1999/xlink" xmlns:svgjs="http://svgjs.dev/svgjs" width="1500" height="352" viewBox="0 0 1500 352"><g transform="matrix(1,0,0,1,-0.9090909090909918,-1.1941731763364487)"><svg viewBox="0 0 396 93" data-background-color="#ffffff" preserveAspectRatio="xMidYMid meet" height="352" width="1500" xmlns="http://www.w3.org/2000/svg" xmlns:xlink="http://www.w3.org/1999/xlink"><g id="tight-bounds" transform="matrix(1,0,0,1,0.2400000000000091,0.31550598124798057)"><svg viewBox="0 0 395.52 92.36898803750404" height="92.36898803750404" width="395.52"><g><svg viewBox="0 0 395.52 92.36898803750404" height="92.36898803750404" width="395.52"><g><svg viewBox="0 0 395.52 92.36898803750404" height="92.36898803750404" width="395.52"><g id="textblocktransform"><svg viewBox="0 0 395.52 92.36898803750404" height="92.36898803750404" width="395.52" id="textblock"><g><svg viewBox="0 0 395.52 92.36898803750404" height="92.36898803750404" width="395.52"><g transform="matrix(1,0,0,1,0,0)"><svg width="395.52" viewBox="4.88 -39.7 226.52 52.910000000000004" height="92.36898803750404" data-palette-color="#624cf5"><path d="M4.88-6.15L4.88-30.81Q4.88-32.1 5.25-33.24 5.62-34.38 6.24-35.22 6.86-36.06 7.69-36.54 8.52-37.01 9.47-37.01L9.47-37.01 23.63-37.01Q24.58-37.01 25.44-36.54 26.29-36.06 26.92-35.22 27.54-34.38 27.91-33.24 28.27-32.1 28.27-30.81L28.27-30.81 28.27-6.15Q28.27-4.88 27.91-3.76 27.54-2.64 26.9-1.81 26.27-0.98 25.43-0.49 24.58 0 23.63 0L23.63 0 9.47 0Q8.52 0 7.69-0.49 6.86-0.98 6.24-1.81 5.62-2.64 5.25-3.76 4.88-4.88 4.88-6.15L4.88-6.15ZM10.72-4.17L22.46-4.17 22.46-32.89 10.72-32.89 10.72-4.17ZM37.84 0L37.84-28.25 43.7-28.25 43.7-25.56 62.11-25.56Q62.01-24.71 61.63-23.94 61.25-23.17 60.69-22.61 60.13-22.05 59.41-21.72 58.69-21.39 57.93-21.39L57.93-21.39 57.93-4.17 63.6-4.17Q63.5-3.32 63.12-2.55 62.74-1.78 62.16-1.22 61.57-0.66 60.81-0.33 60.06 0 59.2 0L59.2 0 56.76 0Q55.81 0 54.95-0.49 54.1-0.98 53.46-1.82 52.83-2.66 52.46-3.78 52.1-4.91 52.1-6.2L52.1-6.2 52.1-21.39 43.65-21.39 43.65 0 37.84 0ZM68.96-6.2L68.96-19.36Q68.96-20.65 69.33-21.78 69.7-22.9 70.32-23.74 70.94-24.58 71.8-25.07 72.65-25.56 73.6-25.56L73.6-25.56 90.69-25.56 90.69-4.17 95.84-4.17Q95.75-3.32 95.37-2.55 94.99-1.78 94.42-1.22 93.84-0.66 93.11-0.33 92.38 0 91.57 0L91.57 0 90.69 0 90.69 6.96Q90.69 8.25 90.33 9.39 89.96 10.52 89.33 11.36 88.69 12.21 87.86 12.71 87.03 13.21 86.08 13.21L86.08 13.21 74.24 13.21 74.24 8.98 84.86 8.98 84.86-2.71Q84.15-1.44 83.12-0.72 82.1 0 80.98 0L80.98 0 73.6 0Q72.65 0 71.8-0.49 70.94-0.98 70.32-1.82 69.7-2.66 69.33-3.78 68.96-4.91 68.96-6.2L68.96-6.2ZM74.78-4.17L84.86-4.17 84.86-21.39 74.78-21.39 74.78-4.17ZM100.09-6.13L100.09-18.68Q100.09-20.14 100.49-21.41 100.9-22.68 101.6-23.61 102.31-24.54 103.28-25.06 104.24-25.59 105.36-25.59L105.36-25.59 121.82-25.59 121.82-4.17 127.12-4.17Q127.02-3.32 126.64-2.55 126.26-1.78 125.69-1.22 125.11-0.66 124.38-0.33 123.65 0 122.84 0L122.84 0 120.23 0Q119.04 0 117.96-0.82 116.89-1.64 116.18-3.03L116.18-3.03Q115.47-1.64 114.4-0.82 113.32 0 112.13 0L112.13 0 104.73 0Q103.78 0 102.92-0.49 102.07-0.98 101.45-1.81 100.82-2.64 100.46-3.75 100.09-4.86 100.09-6.13L100.09-6.13ZM105.9-4.17L116.01-4.17 116.01-21.39 105.9-21.39 105.9-4.17ZM132.05 0L132.05-25.56 137.88-25.56 137.88-15.89 145.42-23.71Q146.21-24.61 147.05-25.1 147.89-25.59 149.06-25.59L149.06-25.59Q150.04-25.59 150.94-25.1 151.85-24.61 152.53-23.77 153.21-22.92 153.62-21.8 154.02-20.68 154.02-19.38L154.02-19.38 154.02-4.2 158.95-4.2Q158.85-3.32 158.47-2.56 158.1-1.81 157.52-1.23 156.95-0.66 156.22-0.33 155.48 0 154.68 0L154.68 0 152.77 0Q151.8 0 150.95-0.49 150.11-0.98 149.49-1.82 148.87-2.66 148.5-3.78 148.13-4.91 148.13-6.2L148.13-6.2 148.13-21.04 137.88-10.5 137.88 0 132.05 0ZM165.93-31.47L165.93-31.47Q165.08-31.47 164.33-31.79 163.59-32.1 163.02-32.67 162.46-33.23 162.15-33.97 161.83-34.72 161.83-35.57L161.83-35.57Q161.83-36.43 162.15-37.17 162.46-37.92 163.02-38.48 163.59-39.04 164.33-39.37 165.08-39.7 165.93-39.7L165.93-39.7Q166.78-39.7 167.53-39.37 168.27-39.04 168.84-38.48 169.4-37.92 169.73-37.17 170.06-36.43 170.06-35.57L170.06-35.57Q170.06-34.72 169.73-33.97 169.4-33.23 168.84-32.67 168.27-32.1 167.52-31.79 166.76-31.47 165.93-31.47ZM163.07-6.2L163.07-25.56 168.91-25.56 168.91-4.17 174.13-4.17Q174.06-3.32 173.68-2.55 173.3-1.78 172.73-1.22 172.16-0.66 171.42-0.33 170.69 0 169.88 0L169.88 0 167.74 0Q166.78 0 165.93-0.49 165.08-0.98 164.44-1.82 163.81-2.66 163.44-3.78 163.07-4.91 163.07-6.2L163.07-6.2ZM177.57 0L177.57-4.54 191.49-21.39 178.31-21.39 178.31-25.56 197.71-25.56 197.71-21.07 183.87-4.17 199.62-4.17Q199.52-3.32 199.14-2.55 198.76-1.78 198.19-1.22 197.62-0.66 196.88-0.33 196.15 0 195.35 0L195.35 0 177.57 0ZM204.74-6.2L204.74-25.56 210.58-25.56 210.58-4.17 220.64-4.17 220.64-25.56 226.47-25.56 226.47-4.17 231.4-4.17Q231.31-3.32 230.93-2.55 230.55-1.78 229.98-1.22 229.4-0.66 228.67-0.33 227.94 0 227.13 0L227.13 0 226.47 0 226.47 6.96Q226.47 8.25 226.11 9.39 225.74 10.52 225.1 11.36 224.47 12.21 223.63 12.71 222.79 13.21 221.83 13.21L221.83 13.21 210.02 13.21 210.02 8.98 220.64 8.98 220.64-2.61Q219.98-1.39 218.94-0.7 217.9 0 216.73 0L216.73 0 209.38 0Q208.43 0 207.58-0.49 206.72-0.98 206.1-1.82 205.48-2.66 205.11-3.78 204.74-4.91 204.74-6.2L204.74-6.2Z" opacity="1" transform="matrix(1,0,0,1,0,0)" fill="#624cf5" class="wordmark-text-0" data-fill-palette-color="primary" id="text-0"></path></svg></g></svg></g></svg></g></svg></g></svg></g><defs></defs></svg><rect width="395.52" height="92.36898803750404" fill="none" stroke="none" visibility="hidden"></rect></g></svg></g></svg>